<mxfile host="65bd71144e">
    <diagram id="zusioF_SnjrqPuHtEGn_" name="Page-1">
        <mxGraphModel dx="2019" dy="537" grid="1" gridSize="10" guides="1" tooltips="1" connect="1" arrows="1" fold="1" page="1" pageScale="1" pageWidth="850" pageHeight="1100" math="0" shadow="0">
            <root>
                <mxCell id="0"/>
                <mxCell id="1" parent="0"/>
                <mxCell id="16" value="" style="rounded=0;whiteSpace=wrap;html=1;" vertex="1" parent="1">
                    <mxGeometry x="175" y="140" width="490" height="280" as="geometry"/>
                </mxCell>
                <mxCell id="7" value="" style="rounded=0;whiteSpace=wrap;html=1;dashed=1;dashPattern=8 8;" vertex="1" parent="1">
                    <mxGeometry x="530" y="170" width="110" height="180" as="geometry"/>
                </mxCell>
                <mxCell id="14" value="" style="edgeStyle=none;html=1;entryX=0;entryY=0.5;entryDx=0;entryDy=0;" edge="1" parent="1" source="2" target="4">
                    <mxGeometry relative="1" as="geometry"/>
                </mxCell>
                <mxCell id="2" value="" style="rounded=1;whiteSpace=wrap;html=1;" vertex="1" parent="1">
                    <mxGeometry x="210" y="170" width="120" height="40" as="geometry"/>
                </mxCell>
                <mxCell id="17" value="" style="edgeStyle=none;html=1;" edge="1" parent="1" source="3" target="6">
                    <mxGeometry relative="1" as="geometry"/>
                </mxCell>
                <mxCell id="3" value="" style="rounded=1;whiteSpace=wrap;html=1;" vertex="1" parent="1">
                    <mxGeometry x="540" y="180" width="80" height="40" as="geometry"/>
                </mxCell>
                <mxCell id="15" style="edgeStyle=none;html=1;entryX=0;entryY=0.25;entryDx=0;entryDy=0;" edge="1" parent="1" source="4" target="7">
                    <mxGeometry relative="1" as="geometry"/>
                </mxCell>
                <mxCell id="4" value="" style="rounded=1;whiteSpace=wrap;html=1;" vertex="1" parent="1">
                    <mxGeometry x="360" y="170" width="120" height="40" as="geometry"/>
                </mxCell>
                <mxCell id="5" value="" style="rounded=1;whiteSpace=wrap;html=1;" vertex="1" parent="1">
                    <mxGeometry x="540" y="230" width="80" height="40" as="geometry"/>
                </mxCell>
                <mxCell id="6" value="" style="rounded=1;whiteSpace=wrap;html=1;" vertex="1" parent="1">
                    <mxGeometry x="540" y="290" width="80" height="40" as="geometry"/>
                </mxCell>
                <mxCell id="8" value="" style="rounded=0;whiteSpace=wrap;html=1;fillColor=#60a917;fontColor=#ffffff;strokeColor=#2D7600;" vertex="1" parent="1">
                    <mxGeometry x="225" y="230" width="90" height="120" as="geometry"/>
                </mxCell>
                <mxCell id="9" value="" style="rounded=0;whiteSpace=wrap;html=1;fillColor=#a20025;fontColor=#ffffff;strokeColor=#6F0000;" vertex="1" parent="1">
                    <mxGeometry x="390" y="220" width="55" height="60" as="geometry"/>
                </mxCell>
                <mxCell id="10" value="" style="rounded=0;whiteSpace=wrap;html=1;fillColor=#a20025;fontColor=#ffffff;strokeColor=#6F0000;" vertex="1" parent="1">
                    <mxGeometry x="398" y="230" width="55" height="60" as="geometry"/>
                </mxCell>
                <mxCell id="11" value="" style="rounded=0;whiteSpace=wrap;html=1;fillColor=#a20025;fontColor=#ffffff;strokeColor=#6F0000;" vertex="1" parent="1">
                    <mxGeometry x="410" y="240" width="55" height="60" as="geometry"/>
                </mxCell>
                <mxCell id="12" value="" style="rounded=0;whiteSpace=wrap;html=1;fillColor=#60a917;fontColor=#ffffff;strokeColor=#2D7600;" vertex="1" parent="1">
                    <mxGeometry x="210" y="220" width="90" height="120" as="geometry"/>
                </mxCell>
                <mxCell id="13" value="" style="rounded=0;whiteSpace=wrap;html=1;fillColor=#a20025;fontColor=#ffffff;strokeColor=#6F0000;" vertex="1" parent="1">
                    <mxGeometry x="225" y="230" width="55" height="60" as="geometry"/>
                </mxCell>
                <mxCell id="18" value="" style="rounded=0;whiteSpace=wrap;html=1;" vertex="1" parent="1">
                    <mxGeometry x="-200" y="452.22" width="960" height="497.78" as="geometry"/>
                </mxCell>
                <mxCell id="19" value="" style="rounded=1;whiteSpace=wrap;html=1;" vertex="1" parent="1">
                    <mxGeometry x="-200" y="452.22" width="230" height="497.78" as="geometry"/>
                </mxCell>
                <mxCell id="25" value="" style="rounded=0;whiteSpace=wrap;html=1;fillColor=#647687;fontColor=#ffffff;strokeColor=#314354;" vertex="1" parent="1">
                    <mxGeometry x="-190" y="515.49" width="210" height="45" as="geometry"/>
                </mxCell>
                <mxCell id="20" value="EPC7019_datasheet_p3f1" style="text;html=1;strokeColor=none;fillColor=none;align=center;verticalAlign=middle;whiteSpace=wrap;rounded=0;" vertex="1" parent="1">
                    <mxGeometry x="-190" y="522.99" width="250" height="30" as="geometry"/>
                </mxCell>
                <mxCell id="21" value="âˆš" style="rounded=0;whiteSpace=wrap;html=1;" vertex="1" parent="1">
                    <mxGeometry x="-180" y="522.99" width="30" height="30" as="geometry"/>
                </mxCell>
                <mxCell id="23" value="EPC7019_datasheet_p3f2" style="text;html=1;strokeColor=none;fillColor=none;align=center;verticalAlign=middle;whiteSpace=wrap;rounded=0;" vertex="1" parent="1">
                    <mxGeometry x="-190" y="562.99" width="250" height="30" as="geometry"/>
                </mxCell>
                <mxCell id="24" value="X" style="rounded=0;whiteSpace=wrap;html=1;" vertex="1" parent="1">
                    <mxGeometry x="-180" y="562.99" width="30" height="30" as="geometry"/>
                </mxCell>
                <mxCell id="26" value="EPC7020_datasheet_p3f2" style="text;html=1;strokeColor=none;fillColor=none;align=center;verticalAlign=middle;whiteSpace=wrap;rounded=0;" vertex="1" parent="1">
                    <mxGeometry x="-190" y="602.99" width="250" height="30" as="geometry"/>
                </mxCell>
                <mxCell id="27" value="X" style="rounded=0;whiteSpace=wrap;html=1;" vertex="1" parent="1">
                    <mxGeometry x="-180" y="602.99" width="30" height="30" as="geometry"/>
                </mxCell>
                <mxCell id="31" value="&lt;font style=&quot;font-size: 18px;&quot;&gt;...&lt;/font&gt;" style="text;html=1;strokeColor=none;fillColor=none;align=center;verticalAlign=middle;whiteSpace=wrap;rounded=0;" vertex="1" parent="1">
                    <mxGeometry x="-115" y="632.99" width="60" height="30" as="geometry"/>
                </mxCell>
                <mxCell id="32" value="Text" style="text;html=1;strokeColor=none;fillColor=none;align=center;verticalAlign=middle;whiteSpace=wrap;rounded=0;fontSize=18;" vertex="1" parent="1">
                    <mxGeometry x="270" y="700" width="60" height="30" as="geometry"/>
                </mxCell>
                <mxCell id="33" value="&lt;font style=&quot;font-size: 12px;&quot;&gt;Confirm on all annotation&lt;/font&gt;" style="rounded=0;whiteSpace=wrap;html=1;fontSize=18;" vertex="1" parent="1">
                    <mxGeometry x="-170" y="900" width="150" height="30" as="geometry"/>
                </mxCell>
                <mxCell id="34" value="" style="endArrow=none;html=1;fontSize=12;" edge="1" parent="1">
                    <mxGeometry width="50" height="50" relative="1" as="geometry">
                        <mxPoint x="-200" y="890" as="sourcePoint"/>
                        <mxPoint x="30" y="890" as="targetPoint"/>
                    </mxGeometry>
                </mxCell>
                <mxCell id="35" value="&lt;font style=&quot;font-size: 12px;&quot;&gt;C:\Users\11275\Downloads\&lt;br&gt;data_extracted\data_extracted&lt;/font&gt;" style="rounded=0;whiteSpace=wrap;html=1;fontSize=18;" vertex="1" parent="1">
                    <mxGeometry x="-180" y="460" width="190" height="47.78" as="geometry"/>
                </mxCell>
                <mxCell id="36" value="extracted data plot in html" style="rounded=0;whiteSpace=wrap;html=1;fontSize=12;" vertex="1" parent="1">
                    <mxGeometry x="130" y="573" width="300" height="297" as="geometry"/>
                </mxCell>
                <mxCell id="37" value="pdf preview with specific page turned to" style="rounded=0;whiteSpace=wrap;html=1;fontSize=12;" vertex="1" parent="1">
                    <mxGeometry x="445" y="490" width="300" height="440" as="geometry"/>
                </mxCell>
                <mxCell id="38" value="" style="rounded=0;whiteSpace=wrap;html=1;fontSize=12;direction=south;" vertex="1" parent="1">
                    <mxGeometry x="370" y="1090" width="40" height="520" as="geometry"/>
                </mxCell>
                <mxCell id="39" value="" style="rounded=0;whiteSpace=wrap;html=1;fontSize=12;direction=south;" vertex="1" parent="1">
                    <mxGeometry x="330" y="1090" width="40" height="520" as="geometry"/>
                </mxCell>
                <mxCell id="40" value="" style="rounded=0;whiteSpace=wrap;html=1;fontSize=12;direction=south;" vertex="1" parent="1">
                    <mxGeometry x="250" y="1090" width="40" height="520" as="geometry"/>
                </mxCell>
                <mxCell id="41" value="" style="rounded=0;whiteSpace=wrap;html=1;fontSize=12;direction=south;" vertex="1" parent="1">
                    <mxGeometry x="290" y="1090" width="40" height="520" as="geometry"/>
                </mxCell>
                <mxCell id="42" value="x" style="text;html=1;strokeColor=none;fillColor=none;align=center;verticalAlign=middle;whiteSpace=wrap;rounded=0;fontSize=12;direction=west;" vertex="1" parent="1">
                    <mxGeometry x="230" y="1090" width="60" height="30" as="geometry"/>
                </mxCell>
                <mxCell id="43" value="y0" style="text;html=1;strokeColor=none;fillColor=none;align=center;verticalAlign=middle;whiteSpace=wrap;rounded=0;fontSize=12;direction=west;" vertex="1" parent="1">
                    <mxGeometry x="270" y="1092.5" width="60" height="25" as="geometry"/>
                </mxCell>
                <mxCell id="44" value="y1" style="text;html=1;strokeColor=none;fillColor=none;align=center;verticalAlign=middle;whiteSpace=wrap;rounded=0;fontSize=12;direction=west;" vertex="1" parent="1">
                    <mxGeometry x="315" y="1090" width="60" height="30" as="geometry"/>
                </mxCell>
                <mxCell id="45" value="y2" style="text;html=1;strokeColor=none;fillColor=none;align=center;verticalAlign=middle;whiteSpace=wrap;rounded=0;fontSize=12;direction=west;" vertex="1" parent="1">
                    <mxGeometry x="360" y="1087.5" width="60" height="30" as="geometry"/>
                </mxCell>
                <mxCell id="47" value="N data points for each legend&lt;br&gt;M-1 legends&amp;nbsp;&lt;br&gt;shape: NxM" style="text;html=1;strokeColor=none;fillColor=none;align=center;verticalAlign=middle;whiteSpace=wrap;rounded=0;fontSize=12;" vertex="1" parent="1">
                    <mxGeometry x="410" y="1120" width="210" height="40" as="geometry"/>
                </mxCell>
            </root>
        </mxGraphModel>
    </diagram>
</mxfile>